<?xml version="1.0" encoding="UTF-8" standalone="no"?>
<!-- Generator: Adobe Illustrator 16.0.4, SVG Export Plug-In . SVG Version: 6.00 Build 0)  -->

<svg
   xmlns:dc="http://purl.org/dc/elements/1.1/"
   xmlns:cc="http://creativecommons.org/ns#"
   xmlns:rdf="http://www.w3.org/1999/02/22-rdf-syntax-ns#"
   xmlns:svg="http://www.w3.org/2000/svg"
   xmlns="http://www.w3.org/2000/svg"
   xmlns:sodipodi="http://sodipodi.sourceforge.net/DTD/sodipodi-0.dtd"
   xmlns:inkscape="http://www.inkscape.org/namespaces/inkscape"
   version="1.1"
   id="Layer_1"
   x="0px"
   y="0px"
   width="167px"
   height="184px"
   viewBox="0 0 167 184"
   enable-background="new 0 0 167 184"
   xml:space="preserve"
   inkscape:version="0.48.4 r9939"
   sodipodi:docname="logo2.svg"><metadata
     id="metadata35"><rdf:RDF><cc:Work
         rdf:about=""><dc:format>image/svg+xml</dc:format><dc:type
           rdf:resource="http://purl.org/dc/dcmitype/StillImage" /><dc:title></dc:title></cc:Work></rdf:RDF></metadata><defs
     id="defs33" /><sodipodi:namedview
     pagecolor="#ffffff"
     bordercolor="#666666"
     borderopacity="1"
     objecttolerance="10"
     gridtolerance="10"
     guidetolerance="10"
     inkscape:pageopacity="0"
     inkscape:pageshadow="2"
     inkscape:window-width="1873"
     inkscape:window-height="1056"
     id="namedview31"
     showgrid="false"
     inkscape:zoom="1.2826087"
     inkscape:cx="-146.87687"
     inkscape:cy="128.08756"
     inkscape:window-x="1967"
     inkscape:window-y="24"
     inkscape:window-maximized="1"
     inkscape:current-layer="g3108" /><g
     id="g3"><circle
       fill="#E5E4F2"
       cx="83.021"
       cy="95.491"
       r="83.5"
       id="circle5" /><path
       fill="#4E4E5C"
       d="M47.208,155.339c0,0,1.107-126.159,2.213-131.139c1.106-4.98,2.568-15.959,27.113-18.26   c17.706-1.66,23.239,8.3,23.793,15.493c0.323,4.202,4.979,121.179,4.979,121.179l9.406-2.213c0,0-3.873-120.626-5.533-125.053   c-1.659-4.427-7.167-20.33-43.712-13.833c-24.9,4.426-26.006,17.153-27.666,24.346c-0.906,3.926-2.213,128.925-2.213,128.925   L47.208,155.339z"
       id="path7" /><polygon
       fill="#4E4E5C"
       points="39.501,145.378 110.759,129.939 111.946,123.245 38.908,138.091  "
       id="polygon9" /><path
       fill="#928D96"
       d="M64.956,1.608c-24.399,4.51-25.507,17.108-27.155,24.251c-0.906,3.926-2.213,128.925-2.213,128.925   l0.578,0.029l6.062-5.008c0,0-1.66-113.433,1.106-125.053C45.84,14.229,48.8,7.337,64.956,1.608z"
       id="path11" /><g
       id="g13"><path
         fill="#4E4E5C"
         d="M102.753,101.665c2.214-4.979,12.174-7.746,18.813-5.533c6.64,2.214,18.26,28.773,8.3,47.033    c0,0-11.62,9.406-19.92,3.873C109.946,147.038,88.522,133.685,102.753,101.665z"
         id="path15" /></g><polygon
       fill="#928D96"
       points="48.868,138.185 106.967,126.013 106.727,123.753 47.262,135.84  "
       id="polygon17" /><path
       fill="#4E4E5C"
       d="M99.844,125.116c0,0,2.797-0.625,3.672,1.688l1.484-0.25v-3.688L99.844,125.116z"
       id="path19" /><path
       fill="#4E4E5C"
       d="M111.191,136.501l45.036,15.299c3.231,1.324,5.445,4.646,1.39,6.492l-73.155,25.514   c-6.821,0.859-10.022-0.895-14.375-3.713l-35.311-26.42L111.191,136.501z"
       id="path21" /><path
       fill="#928D96"
       d="M104.253,18.273c0,0-3.378-16.502-30.97-11.961l0,0c1.037-0.142,2.119-0.267,3.251-0.373   c17.706-1.66,23.239,8.3,23.793,15.493c0.323,4.202,4.479,116.466,4.479,116.466l5.342,1.979L104.253,18.273z"
       id="path23" /><polygon
       fill="#4E4E5C"
       points="45.548,73.524 108.592,63.748 108.196,36.724 45.671,44.855  "
       id="polygon25" /><g
       id="g27"><path
         fill="#4E4E5C"
         d="M19.541,119.372c2.214-4.98,12.173-7.746,18.813-5.533c6.64,2.213,18.26,28.773,8.3,47.033    c0,0-11.62,9.406-19.92,3.873C26.734,164.745,5.311,151.392,19.541,119.372z"
         id="path29" /></g><g
       id="g3108"
       transform="translate(-392.58748,36.647254)"><g
         id="g3088"
         transform="matrix(0.38000638,0,0,0.40196178,452.14784,58.561306)"><polygon
           id="polygon3090"
           points="153.4,137.792 166.462,29.46 83.243,0.875 0.554,29.975 13.621,138.311 83.331,176.625 "
           style="fill:#b3b3b3" /><polygon
           id="polygon3092"
           points="83.05,167.471 146.041,132.609 158.214,35.721 83.05,10.089 "
           style="fill:#a6120d" /><polygon
           id="polygon3094"
           points="83.049,167.471 83.049,10.086 9.833,36.183 21.03,133.072 "
           style="fill:#dd1b16" /><path
           id="path3096"
           d="m 103.74,93.871 -20.69,9.675 H 61.243 L 50.992,129.186 31.925,129.539 83.05,15.804 103.74,93.871 z M 101.74,89 83.187,52.271 67.969,88.368 h 15.08 L 101.74,89 z"
           inkscape:connector-curvature="0"
           style="fill:#f2f2f2" /><polygon
           id="polygon3098"
           points="100.454,88.396 83.088,88.396 83.049,103.523 107.062,103.546 118.285,129.543 136.529,129.881 83.049,15.804 83.186,52.271 "
           style="fill:#b3b3b3" /></g></g></g></svg>